
    <svg width="800" height="300" viewBox="0 0 800 300" xmlns="http://www.w3.org/2000/svg">
        <style>
            .title { font-family: 'Segoe UI', sans-serif; font-weight: 900; font-size: 80px; fill: #e6edf3; }
            .subtitle { font-family: 'Consolas', monospace; font-size: 24px; fill: #3178c6; }
            .glow { filter: drop-shadow(0 0 10px #3178c6); }
            .cyber-box { fill: none; stroke: #3178c6; stroke-width: 2; }
            .blink { animation: blink 2s infinite; }
            @keyframes blink { 0%, 100% { opacity: 1; } 50% { opacity: 0; } }
        </style>
        <rect width="100%" height="100%" fill="#0d1117" />
        <line x1="0" y1="0" x2="0" y2="300" stroke="#6e7681" stroke-width="0.5" opacity="0.1" /><line x1="40" y1="0" x2="40" y2="300" stroke="#6e7681" stroke-width="0.5" opacity="0.1" /><line x1="80" y1="0" x2="80" y2="300" stroke="#6e7681" stroke-width="0.5" opacity="0.1" /><line x1="120" y1="0" x2="120" y2="300" stroke="#6e7681" stroke-width="0.5" opacity="0.1" /><line x1="160" y1="0" x2="160" y2="300" stroke="#6e7681" stroke-width="0.5" opacity="0.1" /><line x1="200" y1="0" x2="200" y2="300" stroke="#6e7681" stroke-width="0.5" opacity="0.1" /><line x1="240" y1="0" x2="240" y2="300" stroke="#6e7681" stroke-width="0.5" opacity="0.1" /><line x1="280" y1="0" x2="280" y2="300" stroke="#6e7681" stroke-width="0.5" opacity="0.1" /><line x1="320" y1="0" x2="320" y2="300" stroke="#6e7681" stroke-width="0.5" opacity="0.1" /><line x1="360" y1="0" x2="360" y2="300" stroke="#6e7681" stroke-width="0.5" opacity="0.1" /><line x1="400" y1="0" x2="400" y2="300" stroke="#6e7681" stroke-width="0.5" opacity="0.1" /><line x1="440" y1="0" x2="440" y2="300" stroke="#6e7681" stroke-width="0.5" opacity="0.1" /><line x1="480" y1="0" x2="480" y2="300" stroke="#6e7681" stroke-width="0.5" opacity="0.1" /><line x1="520" y1="0" x2="520" y2="300" stroke="#6e7681" stroke-width="0.5" opacity="0.1" /><line x1="560" y1="0" x2="560" y2="300" stroke="#6e7681" stroke-width="0.5" opacity="0.1" /><line x1="600" y1="0" x2="600" y2="300" stroke="#6e7681" stroke-width="0.5" opacity="0.1" /><line x1="640" y1="0" x2="640" y2="300" stroke="#6e7681" stroke-width="0.5" opacity="0.1" /><line x1="680" y1="0" x2="680" y2="300" stroke="#6e7681" stroke-width="0.5" opacity="0.1" /><line x1="720" y1="0" x2="720" y2="300" stroke="#6e7681" stroke-width="0.5" opacity="0.1" /><line x1="760" y1="0" x2="760" y2="300" stroke="#6e7681" stroke-width="0.5" opacity="0.1" /><line x1="0" y1="0" x2="800" y2="0" stroke="#6e7681" stroke-width="0.5" opacity="0.1" /><line x1="0" y1="40" x2="800" y2="40" stroke="#6e7681" stroke-width="0.5" opacity="0.1" /><line x1="0" y1="80" x2="800" y2="80" stroke="#6e7681" stroke-width="0.5" opacity="0.1" /><line x1="0" y1="120" x2="800" y2="120" stroke="#6e7681" stroke-width="0.5" opacity="0.1" /><line x1="0" y1="160" x2="800" y2="160" stroke="#6e7681" stroke-width="0.5" opacity="0.1" /><line x1="0" y1="200" x2="800" y2="200" stroke="#6e7681" stroke-width="0.5" opacity="0.1" /><line x1="0" y1="240" x2="800" y2="240" stroke="#6e7681" stroke-width="0.5" opacity="0.1" /><line x1="0" y1="280" x2="800" y2="280" stroke="#6e7681" stroke-width="0.5" opacity="0.1" />
        
        <!-- Center Box -->
        <path d="M50,50 L750,50 L750,250 L50,250 Z" class="cyber-box" />
        <path d="M40,40 L60,40 M740,40 L760,40 M760,260 L740,260 M60,260 L40,260" stroke="#ff0055" stroke-width="4" />

        <text x="50%" y="140" text-anchor="middle" class="title glow">ARKA</text>
        <text x="50%" y="190" text-anchor="middle" class="subtitle">&lt; Code_Architect /&gt;</text>
        
        <!-- Dynamic TS Badge -->
        <g transform="translate(680, 190)">
             <rect width="50" height="50" rx="5" fill="#3178c6" />
             <text x="25" y="35" text-anchor="middle" fill="white" font-family="Segoe UI" font-weight="bold" font-size="30">TS</text>
        </g>
    </svg>
    