
    <svg width="800" height="300" viewBox="0 0 800 300" xmlns="http://www.w3.org/2000/svg">
        <defs>
            <filter id="glow">
                <feGaussianBlur stdDeviation="2.5" result="coloredBlur"/>
                <feMerge>
                     <feMergeNode in="coloredBlur"/>
                     <feMergeNode in="SourceGraphic"/>
                </feMerge>
            </filter>
        </defs>
        <style>
    .hud-text { font-family: 'Segoe UI', sans-serif; fill: #00ffff; font-weight: bold; }
    .hud-label { font-family: 'Segoe UI', sans-serif; fill: #00ffff; font-size: 10px; opacity: 0.7; }
    .ring { fill: none; stroke: #00ffff; stroke-width: 2; }
    .ring-dim { fill: none; stroke: #004444; stroke-width: 2; }
    .spin { animation: spin 10s linear infinite; transform-origin: center; }
    .spin-rev { animation: spin 15s linear infinite reverse; transform-origin: center; }
    .pulse { animation: pulse 2s infinite; }
    @keyframes spin { 100% { transform: rotate(360deg); } }
    @keyframes pulse { 0%, 100% { opacity: 1; } 50% { opacity: 0.5; } }
</style>
        <rect width="100%" height="100%" fill="#050505" />
        
        <circle cx="400" cy="150" r="40" fill="none" stroke="#00ffff" stroke-width="4" filter="url(#glow)" />
        <circle cx="400" cy="150" r="30" fill="#00ffff" opacity="0.2" class="pulse" />
        <text x="400" y="155" text-anchor="middle" class="hud-text" font-size="20">CORE</text>
    
        
        <g class="spin" style="transform-origin: 400px 150px">
             <path d="M 460 150 A 60 60 0 0 0 400 90" class="ring" />
             <path d="M 340 150 A 60 60 0 0 0 400 210" class="ring" />
        </g>
        <g class="spin-rev" style="transform-origin: 400px 150px">
             <path d="M 449.49747468305833 199.49747468305833 A 70 70 0 0 0 449.49747468305833 100.50252531694167" class="ring-dim" />
             <path d="M 350.50252531694167 100.50252531694167 A 70 70 0 0 0 350.50252531694167 199.49747468305833" class="ring-dim" />
        </g>
    
        
        <!-- Left Module: Memory -->
        <g transform="translate(250, 150)">
            <line x1="0" y1="0" x2="-40" y2="0" stroke="#00ffff" stroke-width="1" />
            <rect x="-140" y="-30" width="100" height="60" fill="#001111" stroke="#00ffff" rx="5" />
            <text x="-90" y="-10" text-anchor="middle" class="hud-label">MEMORY</text>
            <text x="-90" y="15" text-anchor="middle" class="hud-text" font-size="16">64 TB</text>
        </g>

        <!-- Right Module: Network -->
        <g transform="translate(550, 150)">
            <line x1="0" y1="0" x2="40" y2="0" stroke="#00ffff" stroke-width="1" />
            <rect x="40" y="-30" width="100" height="60" fill="#001111" stroke="#00ffff" rx="5" />
            <text x="90" y="-10" text-anchor="middle" class="hud-label">UPLINK</text>
            <text x="90" y="15" text-anchor="middle" class="hud-text" font-size="16">10 Gbps</text>
        </g>
    
        
        <!-- Decoration -->
        <text x="10" y="290" class="hud-label">SYSTEM_INTEGRITY: NORMAL</text>
        <text x="790" y="290" text-anchor="end" class="hud-label">V3.0.1 ALPHA</text>
    </svg>
    