
    <svg width="800" height="400" viewBox="0 0 800 400" xmlns="http://www.w3.org/2000/svg">
        <defs>
             <filter id="glow">
                <feGaussianBlur stdDeviation="3" result="coloredBlur"/>
                <feMerge>
                    <feMergeNode in="coloredBlur"/>
                    <feMergeNode in="SourceGraphic"/>
                </feMerge>
            </filter>
        </defs>
        <!-- Transparent BG -->
        <rect width="100%" height="100%" fill="none" />
        
        <g filter="url(#glow)">
            
            <g transform="translate(310, 248.0277542266378)">
                <!-- Side (Left) -->
                <path d="M0,0 L0,43.94449154672438 L-30,58.94449154672438 L-30,15 Z" fill="#800080" />
                <!-- Front (Right) -->
                <path d="M0,0 L0,43.94449154672438 L30,58.94449154672438 L30,15 Z" fill="#b300b3" />
                <!-- Top -->
                <path d="M0,0 L30,-15 L0,-30 L-30,-15 Z" fill="#ff00ff" />
            </g>
        
            <text x="310" y="300" text-anchor="middle" fill="#ffffff" font-family="monospace" font-weight="bold" font-size="14">STARS</text>
             <text x="310" y="320" text-anchor="middle" fill="#ff00ff" font-family="monospace" font-size="12">2</text>
        
            <g transform="translate(400, 280)">
                <!-- Side (Left) -->
                <path d="M0,0 L0,40 L-30,55 L-30,15 Z" fill="#008080" />
                <!-- Front (Right) -->
                <path d="M0,0 L0,40 L30,55 L30,15 Z" fill="#00b3b3" />
                <!-- Top -->
                <path d="M0,0 L30,-15 L0,-30 L-30,-15 Z" fill="#00ffff" />
            </g>
        
            <text x="400" y="330" text-anchor="middle" fill="#ffffff" font-family="monospace" font-weight="bold" font-size="14">FOLLOWERS</text>
             <text x="400" y="350" text-anchor="middle" fill="#00ffff" font-family="monospace" font-size="12">1</text>
        
            <g transform="translate(490, 297.811241751318)">
                <!-- Side (Left) -->
                <path d="M0,0 L0,64.37751649736401 L-30,79.37751649736401 L-30,15 Z" fill="#808000" />
                <!-- Front (Right) -->
                <path d="M0,0 L0,64.37751649736401 L30,79.37751649736401 L30,15 Z" fill="#b3b300" />
                <!-- Top -->
                <path d="M0,0 L30,-15 L0,-30 L-30,-15 Z" fill="#ffff00" />
            </g>
        
            <text x="490" y="360" text-anchor="middle" fill="#ffffff" font-family="monospace" font-weight="bold" font-size="14">REPOS</text>
             <text x="490" y="380" text-anchor="middle" fill="#ffff00" font-family="monospace" font-size="12">4</text>
        
        </g>
        
        <text x="50%" y="30" text-anchor="middle" fill="#ffffff" opacity="0.5" font-family="monospace" font-size="10">ISOMETRIC_DATA_VISUALIZATION_V1</text>
    </svg>
    